<?xml version="1.0" standalone="no"?><svg xmlns="http://www.w3.org/2000/svg" viewBox="0 0 1440 320"><path fill="#00cba9" fill-opacity="1" d="M0,256L24,261.3C48,267,96,277,144,266.7C192,256,240,224,288,186.7C336,149,384,107,432,85.3C480,64,528,64,576,96C624,128,672,192,720,192C768,192,816,128,864,117.3C912,107,960,149,1008,192C1056,235,1104,277,1152,298.7C1200,320,1248,320,1296,277.3C1344,235,1392,149,1416,106.7L1440,64L1440,0L1416,0C1392,0,1344,0,1296,0C1248,0,1200,0,1152,0C1104,0,1056,0,1008,0C960,0,912,0,864,0C816,0,768,0,720,0C672,0,624,0,576,0C528,0,480,0,432,0C384,0,336,0,288,0C240,0,192,0,144,0C96,0,48,0,24,0L0,0Z"></path></svg>